<svg width="100" height="100" viewBox="0 0 16 17" fill="none" xmlns="http://www.w3.org/2000/svg">
<path fill-rule="evenodd" clip-rule="evenodd" d="M11.6667 2.37349C11.6667 3.10683 11.0667 3.70683 10.3333 3.70683C9.6 3.70683 9 3.10683 9 2.37349C9 1.64016 9.6 1.04016 10.3333 1.04016C11.0667 1.04016 11.6667 1.64016 11.6667 2.37349ZM0 11.3735C0 9.50683 1.46667 8.04016 3.33333 8.04016C5.2 8.04016 6.66667 9.50683 6.66667 11.3735C6.66667 13.2402 5.2 14.7068 3.33333 14.7068C1.46667 14.7068 0 13.2402 0 11.3735ZM3.33333 13.7068C2.06667 13.7068 1 12.6402 1 11.3735C1 10.1068 2.06667 9.04016 3.33333 9.04016C4.6 9.04016 5.66667 10.1068 5.66667 11.3735C5.66667 12.6402 4.6 13.7068 3.33333 13.7068ZM9.33333 5.97349L8.8 5.44016L7.2 7.04016L8.66667 8.57349V12.7068H7.33333V9.37349L5.2 7.50683C4.93333 7.30683 4.8 6.97349 4.8 6.57349C4.8 6.24016 4.93333 5.90683 5.2 5.64016L7.06667 3.77349C7.26667 3.50683 7.6 3.37349 8 3.37349C8.4 3.37349 8.73333 3.50683 9.06667 3.77349L10.3333 5.04016C10.9333 5.64016 11.7333 6.04016 12.7333 6.04016V7.37349C11.3333 7.37349 10.2 6.84016 9.33333 5.97349ZM12.6667 8.04016C10.8 8.04016 9.33333 9.50683 9.33333 11.3735C9.33333 13.2402 10.8 14.7068 12.6667 14.7068C14.5333 14.7068 16 13.2402 16 11.3735C16 9.50683 14.5333 8.04016 12.6667 8.04016ZM10.3333 11.3735C10.3333 12.6402 11.4 13.7068 12.6667 13.7068C13.9333 13.7068 15 12.6402 15 11.3735C15 10.1068 13.9333 9.04016 12.6667 9.04016C11.4 9.04016 10.3333 10.1068 10.3333 11.3735Z" fill="white"/>
</svg>
