<svg width="100" height="100" viewBox="0 0 17 17" fill="none" xmlns="http://www.w3.org/2000/svg">
<path fill-rule="evenodd" clip-rule="evenodd" d="M11.9999 2.37362C11.9999 3.10695 11.3999 3.70695 10.6666 3.70695C9.93325 3.70695 9.33325 3.10695 9.33325 2.37362C9.33325 1.64028 9.93325 1.04028 10.6666 1.04028C11.3999 1.04028 11.9999 1.64028 11.9999 2.37362ZM0.333252 11.3736C0.333252 9.50695 1.79992 8.04028 3.66658 8.04028C5.53325 8.04028 6.99992 9.50695 6.99992 11.3736C6.99992 13.2403 5.53325 14.707 3.66658 14.707C1.79992 14.707 0.333252 13.2403 0.333252 11.3736ZM3.66659 13.707C2.39992 13.707 1.33325 12.6403 1.33325 11.3736C1.33325 10.1069 2.39992 9.04028 3.66659 9.04028C4.93325 9.04028 5.99992 10.1069 5.99992 11.3736C5.99992 12.6403 4.93325 13.707 3.66659 13.707ZM9.66659 5.97362L9.13325 5.44028L7.53325 7.04028L8.99992 8.57362V12.707H7.66659V9.37362L5.53325 7.50695C5.26658 7.30695 5.13325 6.97362 5.13325 6.57362C5.13325 6.24028 5.26658 5.90695 5.53325 5.64028L7.39992 3.77362C7.59992 3.50695 7.93325 3.37362 8.33325 3.37362C8.73325 3.37362 9.06659 3.50695 9.39992 3.77362L10.6666 5.04028C11.2666 5.64028 12.0666 6.04028 13.0666 6.04028V7.37362C11.6666 7.37362 10.5333 6.84028 9.66659 5.97362ZM12.9999 8.04028C11.1333 8.04028 9.66658 9.50695 9.66658 11.3736C9.66658 13.2403 11.1333 14.707 12.9999 14.707C14.8666 14.707 16.3333 13.2403 16.3333 11.3736C16.3333 9.50695 14.8666 8.04028 12.9999 8.04028ZM10.6666 11.3736C10.6666 12.6403 11.7333 13.707 12.9999 13.707C14.2666 13.707 15.3333 12.6403 15.3333 11.3736C15.3333 10.1069 14.2666 9.04028 12.9999 9.04028C11.7333 9.04028 10.6666 10.1069 10.6666 11.3736Z" fill="#2A9D8F"/>
</svg>
