<svg width="100" height="100" viewBox="0 0 17 17" fill="none" xmlns="http://www.w3.org/2000/svg">
<path fill-rule="evenodd" clip-rule="evenodd" d="M11.7778 3.3736C12.2178 3.3736 12.5911 3.6536 12.7244 4.04693L14.1111 8.04026V13.3736C14.1111 13.7403 13.8111 14.0403 13.4444 14.0403H12.7778C12.4111 14.0403 12.1111 13.7403 12.1111 13.3736V12.7069H4.11108V13.3736C4.11108 13.7403 3.81108 14.0403 3.44442 14.0403H2.77775C2.41108 14.0403 2.11108 13.7403 2.11108 13.3736V8.04026L3.49775 4.04693C3.63775 3.6536 4.00442 3.3736 4.44442 3.3736H11.7778ZM3.44442 9.70693C3.44442 10.2603 3.89108 10.7069 4.44442 10.7069C4.99775 10.7069 5.44442 10.2603 5.44442 9.70693C5.44442 9.1536 4.99775 8.70693 4.44442 8.70693C3.89108 8.70693 3.44442 9.1536 3.44442 9.70693ZM11.7778 10.7069C11.2244 10.7069 10.7778 10.2603 10.7778 9.70693C10.7778 9.1536 11.2244 8.70693 11.7778 8.70693C12.3311 8.70693 12.7778 9.1536 12.7778 9.70693C12.7778 10.2603 12.3311 10.7069 11.7778 10.7069ZM4.44442 4.3736L3.44442 7.3736H12.7778L11.7778 4.3736H4.44442Z" fill="#2A9D8F"/>
</svg>
