<svg width="100" height="100" viewBox="0 0 17 17" fill="none" xmlns="http://www.w3.org/2000/svg">
<path fill-rule="evenodd" clip-rule="evenodd" d="M12.3334 3.37354C12.7734 3.37354 13.1467 3.65354 13.28 4.04687L14.6667 8.0402V13.3735C14.6667 13.7402 14.3667 14.0402 14 14.0402H13.3334C12.9667 14.0402 12.6667 13.7402 12.6667 13.3735V12.7069H4.66669V13.3735C4.66669 13.7402 4.36669 14.0402 4.00002 14.0402H3.33335C2.96669 14.0402 2.66669 13.7402 2.66669 13.3735V8.0402L4.05335 4.04687C4.19335 3.65354 4.56002 3.37354 5.00002 3.37354H12.3334ZM4.00002 9.70687C4.00002 10.2602 4.44669 10.7069 5.00002 10.7069C5.55335 10.7069 6.00002 10.2602 6.00002 9.70687C6.00002 9.15354 5.55335 8.70687 5.00002 8.70687C4.44669 8.70687 4.00002 9.15354 4.00002 9.70687ZM12.3334 10.7069C11.78 10.7069 11.3334 10.2602 11.3334 9.70687C11.3334 9.15354 11.78 8.70687 12.3334 8.70687C12.8867 8.70687 13.3334 9.15354 13.3334 9.70687C13.3334 10.2602 12.8867 10.7069 12.3334 10.7069ZM5.00002 4.37354L4.00002 7.37354H13.3334L12.3334 4.37354H5.00002Z" fill="white"/>
</svg>
