<svg width="43" height="43" viewBox="0 0 43 43" fill="none" xmlns="http://www.w3.org/2000/svg">
<path fill-rule="evenodd" clip-rule="evenodd" d="M23.25 17.5402V3.54016C30.985 3.54016 37.25 9.80516 37.25 17.5402H23.25ZM37.25 19.2902C37.25 22.5102 36.1475 25.4852 34.31 27.8477C35.57 28.9677 36.375 30.5952 36.375 32.4152C36.375 35.7927 33.6275 38.5402 30.25 38.5402C27.17 38.5402 24.615 36.2652 24.195 33.2902H20.555C20.135 36.2652 17.58 38.5402 14.5 38.5402C11.1225 38.5402 8.375 35.7927 8.375 32.4152C8.375 30.0877 9.67 28.0577 11.595 27.0252C11.1925 26.4127 7.885 19.2902 7.885 19.2902H4V15.7902H10.1075L11.77 19.2902H37.25ZM14.5 35.0402C13.0475 35.0402 11.875 33.8677 11.875 32.4152C11.875 30.9627 13.0475 29.7902 14.5 29.7902C15.9525 29.7902 17.125 30.9627 17.125 32.4152C17.125 33.8677 15.9525 35.0402 14.5 35.0402ZM27.625 32.4152C27.625 33.8677 28.7975 35.0402 30.25 35.0402C31.7025 35.0402 32.875 33.8677 32.875 32.4152C32.875 30.9627 31.7025 29.7902 30.25 29.7902C28.7975 29.7902 27.625 30.9627 27.625 32.4152Z" fill="#264653"/>
</svg>
