<svg width="36" height="36" viewBox="0 0 36 36" fill="none" xmlns="http://www.w3.org/2000/svg">
<mask id="mask0" style="mask-type:alpha" maskUnits="userSpaceOnUse" x="10" y="4" width="16" height="28">
<path d="M18.45 16.35C15.045 15.465 13.95 14.55 13.95 13.125C13.95 11.49 15.465 10.35 18 10.35C20.13 10.35 21.195 11.16 21.585 12.45C21.765 13.05 22.26 13.5 22.89 13.5H23.34C24.33 13.5 25.035 12.525 24.69 11.595C24.06 9.825 22.59 8.355 20.25 7.785V6.75C20.25 5.505 19.245 4.5 18 4.5C16.755 4.5 15.75 5.505 15.75 6.75V7.74C12.84 8.37 10.5 10.26 10.5 13.155C10.5 16.62 13.365 18.345 17.55 19.35C21.3 20.25 22.05 21.57 22.05 22.965C22.05 24 21.315 25.65 18 25.65C15.525 25.65 14.25 24.765 13.755 23.505C13.53 22.92 13.02 22.5 12.405 22.5H11.985C10.98 22.5 10.275 23.52 10.65 24.45C11.505 26.535 13.5 27.765 15.75 28.245V29.25C15.75 30.495 16.755 31.5 18 31.5C19.245 31.5 20.25 30.495 20.25 29.25V28.275C23.175 27.72 25.5 26.025 25.5 22.95C25.5 18.69 21.855 17.235 18.45 16.35Z" fill="black"/>
</mask>
<g mask="url(#mask0)">
<rect width="36" height="36" fill="#FCB112"/>
</g>
</svg>
