<svg width="37" height="36" viewBox="0 0 37 36" fill="none" xmlns="http://www.w3.org/2000/svg">
<path fill-rule="evenodd" clip-rule="evenodd" d="M2 6H5L10.4 17.385L8.375 21.045C7.28 23.055 8.72 25.5 11 25.5H29V22.5H11L12.65 19.5H23.825C24.95 19.5 25.94 18.885 26.45 17.955L31.82 8.22C32.375 7.23 31.655 6 30.515 6H8.315L6.905 3H2V6ZM11 27C9.35 27 8.015 28.35 8.015 30C8.015 31.65 9.35 33 11 33C12.65 33 14 31.65 14 30C14 28.35 12.65 27 11 27ZM23.015 30C23.015 28.35 24.35 27 26 27C27.65 27 29 28.35 29 30C29 31.65 27.65 33 26 33C24.35 33 23.015 31.65 23.015 30Z" fill="#FCB112"/>
</svg>
