<svg width="43" height="43" viewBox="0 0 43 43" fill="none" xmlns="http://www.w3.org/2000/svg">
<path fill-rule="evenodd" clip-rule="evenodd" d="M2.25 7.04016H5.75L12.05 20.3227L9.6875 24.5927C8.41 26.9377 10.09 29.7902 12.75 29.7902H33.75V26.2902H12.75L14.675 22.7902H27.7125C29.025 22.7902 30.18 22.0727 30.775 20.9877L37.04 9.63016C37.6875 8.47516 36.8475 7.04016 35.5175 7.04016H9.6175L7.9725 3.54016H2.25V7.04016ZM12.75 31.5402C10.825 31.5402 9.2675 33.1152 9.2675 35.0402C9.2675 36.9652 10.825 38.5402 12.75 38.5402C14.675 38.5402 16.25 36.9652 16.25 35.0402C16.25 33.1152 14.675 31.5402 12.75 31.5402ZM26.7675 35.0402C26.7675 33.1152 28.325 31.5402 30.25 31.5402C32.175 31.5402 33.75 33.1152 33.75 35.0402C33.75 36.9652 32.175 38.5402 30.25 38.5402C28.325 38.5402 26.7675 36.9652 26.7675 35.0402Z" fill="#264653"/>
</svg>
