<svg width="44" height="44" viewBox="0 0 44 44" fill="none" xmlns="http://www.w3.org/2000/svg">
<mask id="mask0" style="mask-type:alpha" maskUnits="userSpaceOnUse" x="5" y="7" width="34" height="30">
<path d="M18.2147 34.7613V25.902H25.3021V34.7613C25.3021 35.7358 26.0995 36.5331 27.074 36.5331H32.3896C33.3641 36.5331 34.1614 35.7358 34.1614 34.7613V22.3583H37.1736C37.9886 22.3583 38.3784 21.3483 37.7583 20.8168L22.9456 7.47468C22.2723 6.87225 21.2446 6.87225 20.5713 7.47468L5.75856 20.8168C5.15613 21.3483 5.52822 22.3583 6.34327 22.3583H9.35543V34.7613C9.35543 35.7358 10.1528 36.5331 11.1273 36.5331H16.4429C17.4174 36.5331 18.2147 35.7358 18.2147 34.7613Z" fill="black"/>
</mask>
<g mask="url(#mask0)">
<rect x="0.5" y="0.515747" width="42.5246" height="42.5246" fill="#264653"/>
</g>
</svg>
