<svg width="37" height="36" viewBox="0 0 37 36" fill="none" xmlns="http://www.w3.org/2000/svg">
<path fill-rule="evenodd" clip-rule="evenodd" d="M35.9836 0.353973C35.3035 0.88025 34.6346 1.55827 34.1505 2.21193L33.7219 2.79058L33.413 2.51277C32.9971 2.13882 32.4233 2.01128 31.7539 2.14394C31.4853 2.19722 31.2216 2.26925 31.1679 2.30403C31.1138 2.33922 30.9285 2.29362 30.7517 2.20168C30.312 1.9732 29.6288 1.98584 29.1461 2.23126C28.6465 2.48535 27.8517 3.28505 27.4183 3.96985C26.7891 4.964 26.3713 6.55605 26.5469 7.29057C26.6367 7.66667 27.2645 7.75051 27.5138 7.41976C27.5602 7.35822 27.6192 7.01054 27.6449 6.64708C27.7179 5.61633 28.0948 4.63168 28.7295 3.81372C29.1567 3.26332 29.6841 2.88855 30.0315 2.88855C30.1755 2.88855 30.2933 2.90523 30.2933 2.92572C30.2933 2.94612 30.1928 3.12273 30.0699 3.31809C29.7519 3.82388 29.5837 4.32356 29.5363 4.90403C29.5019 5.32424 29.5255 5.46971 29.678 5.77906C30.033 6.49954 30.8132 6.75075 31.4023 6.33425C31.7701 6.07421 31.882 5.67638 31.8948 4.58195C31.9046 3.73806 31.8894 3.63909 31.681 3.19311C31.5575 2.9291 31.4717 2.69698 31.4903 2.67749C31.509 2.65791 31.7005 2.60678 31.916 2.56382C32.5248 2.44256 33.1567 2.65436 33.3566 3.04665C33.417 3.16519 33.3983 3.29463 33.2824 3.56293C33.0604 4.07682 33.0722 4.51925 33.311 4.63349C33.5555 4.75063 33.8123 4.6107 33.8811 4.32273C33.9091 4.20544 33.9115 3.85288 33.8865 3.53923L33.841 2.96884L34.3007 2.3298C34.7511 1.70374 35.8417 0.537522 36.3091 0.181989C36.4389 0.0833589 36.5224 0.00141461 36.4947 1.0322e-05C36.467 -0.00147657 36.237 0.157869 35.9836 0.353973ZM30.9675 3.61134C31.0573 3.80786 31.1207 4.17785 31.1409 4.62325C31.1865 5.62856 31.0337 5.95105 30.5698 5.82871C30.0116 5.68159 30.0193 4.4003 30.5837 3.49536C30.7474 3.23301 30.8021 3.24961 30.9675 3.61134ZM33.5598 4.27317C33.5259 4.36585 33.4881 4.37758 33.4277 4.31423C33.3674 4.25087 33.3737 4.1344 33.4496 3.90806L33.5559 3.59069L33.5816 3.867C33.5956 4.019 33.5858 4.2018 33.5598 4.27317ZM16.158 6.75603C15.9308 6.8412 15.6831 6.96634 15.6076 7.03408C15.5319 7.10173 12.1649 10.0712 8.12517 13.6328C2.07635 18.9657 0.754914 20.1671 0.636643 20.4405C0.0560601 21.783 1.42066 23.0655 2.93696 22.6025C3.28658 22.4957 3.57471 22.2867 4.50287 21.4666C5.12851 20.9138 6.30596 19.7792 7.11947 18.9453C9.79583 16.2018 12.5935 13.6449 15.1741 11.5837C16.6225 10.4269 16.875 10.2758 17.1651 10.3916C17.4445 10.5032 22.1936 14.3744 22.1936 14.4905C22.1936 14.5079 21.3885 13.9186 20.4046 13.1808C17.3493 10.8899 17.0983 10.7216 16.9 10.8303C16.191 11.2192 12.6695 14.6499 8.05848 19.444L5.75832 21.8355L5.7595 28.7798C5.76029 33.0116 5.78986 35.7725 5.83531 35.848C5.90089 35.957 7.22405 35.9744 16.833 35.9934C25.9519 36.0114 27.7709 35.9964 27.8449 35.9028C27.9087 35.822 27.939 33.651 27.9535 28.1006L27.9735 20.4105L29.1394 21.4338C30.4872 22.6167 30.7505 22.7548 31.5454 22.695C32.5054 22.6229 33.1071 22.0794 33.1864 21.2128C33.2578 20.4325 33.2378 20.4096 29.8594 17.4217L26.7785 14.6967L26.8108 14.0587C26.8686 12.9156 27.0654 11.0337 27.2231 10.1153C27.3961 9.10772 27.3531 8.86015 26.9817 8.72294C26.6479 8.59961 26.3468 8.73732 25.9204 9.20849C25.3009 9.89304 25.2555 10.0454 25.1742 11.7086C25.1353 12.5063 25.0945 13.1658 25.0836 13.1741C25.0728 13.1825 23.4554 11.7648 21.4894 10.0236C19.5235 8.28249 17.8072 6.8184 17.6755 6.76999C17.207 6.59784 16.5947 6.59223 16.158 6.75603ZM22.4396 14.6804C22.5374 14.8114 22.5346 14.8143 22.4099 14.7116C22.3342 14.6493 22.2723 14.5842 22.2723 14.5671C22.2723 14.4991 22.3368 14.5428 22.4396 14.6804ZM25.2197 16.7876C26.1464 17.7927 26.1007 18.8764 25.0103 21.7446C23.7532 25.051 19.9998 31.8208 18.5305 33.4315C18.2267 33.7645 18.1627 33.7992 17.9385 33.7521C17.3564 33.6298 17.2394 33.3037 17.2394 31.8029C17.2394 30.6904 17.4287 25.7659 17.5111 24.7376L17.5507 24.242L16.5843 26.2245C15.2344 28.9936 14.7467 29.7818 13.4661 31.2634C11.8314 33.1548 10.5278 33.8456 9.25771 33.4936C8.64937 33.325 8.30981 33.0309 7.96813 32.3767C7.72702 31.9153 7.68857 31.7608 7.66097 31.1433C7.62432 30.3229 7.79512 29.6656 8.22834 28.9598C8.66179 28.2538 8.99836 28.0494 9.3402 28.2847C9.59876 28.4626 9.58319 28.6147 9.26675 29.0031C9.12033 29.1827 8.88355 29.5603 8.74051 29.8423C8.52284 30.2711 8.47495 30.4645 8.44679 31.0275C8.41628 31.6378 8.43264 31.7375 8.62334 32.1013C8.90738 32.6433 9.1539 32.8174 9.69509 32.8586C10.2359 32.8996 10.6117 32.7414 11.3321 32.1689C12.5937 31.1664 14.4833 28.2025 15.813 25.1403C16.0671 24.5554 16.6016 23.2961 17.0009 22.342C18.1327 19.6376 18.2867 19.4096 18.9826 19.4096C19.1944 19.4096 19.4905 19.4634 19.6404 19.5293C19.8685 19.6294 19.9131 19.6908 19.9131 19.9054C19.9131 20.0464 19.7376 21.7304 19.5231 23.6475C18.9769 28.5278 18.7191 31.041 18.7483 31.2C18.781 31.3785 19.4949 30.0268 20.4599 27.9592C22.0738 24.5013 23.1649 21.6491 23.6931 19.5072C23.8828 18.7382 23.9237 18.4048 23.9237 17.6279C23.9237 16.5327 24.0088 16.3532 24.5286 16.3532C24.7759 16.3532 24.8787 16.4178 25.2197 16.7876Z" fill="#FCB112"/>
</svg>
