<svg width="33" height="33" viewBox="0 0 33 33" fill="none" xmlns="http://www.w3.org/2000/svg">
<path d="M29.0999 25.5081C27.1192 22.0297 24.4814 21.8848 24.4814 21.8848L15.8048 21.9331C15.8048 21.9331 14.8096 22.3002 14.8096 23.3824C14.8096 24.4742 15.8531 24.8124 15.8531 24.8124L21.2446 24.8414C21.6117 25.054 21.2446 25.2955 21.2446 25.2955C21.2446 25.2955 10.6839 25.6917 9.60169 25.0636C8.64513 24.5032 3.35027 22.4452 3.35027 22.4452L3.33094 22.4645C3.05074 22.165 2.66426 21.9814 2.2198 21.9814C1.37919 21.9814 0.693176 22.6674 0.693176 23.508C0.693176 23.9525 0.896071 24.3486 1.1956 24.6288L8.03641 28.1845C9.89154 29.2667 11.737 29.4019 11.737 29.4019H18.9063C23.5442 29.4019 23.9597 32.6291 23.9597 32.6291H32.53L29.0999 25.5081Z" fill="#25596D"/>
<path d="M13.6032 0.831329L0.636536 9.43065L2.0472 11.566L3.31294 10.735V20.774H5.30335V18.7353V16.6579V8.88957L13.6032 3.38214L21.9029 8.88957V16.6579V18.7353V20.774H23.8933V10.735L25.1591 11.566L26.5698 9.43065L13.6032 0.831329Z" fill="#25596D"/>
</svg>
