<svg width="40" height="26" viewBox="0 0 40 26" fill="none" xmlns="http://www.w3.org/2000/svg">
<path fill-rule="evenodd" clip-rule="evenodd" d="M18.4973 5.6906C18.4973 8.63188 16.1407 11.0062 13.1994 11.0062C10.2581 11.0062 7.88385 8.63188 7.88385 5.6906C7.88385 2.74932 10.2581 0.375031 13.1994 0.375031C16.1407 0.375031 18.4973 2.74932 18.4973 5.6906ZM32.6721 5.6906C32.6721 8.63188 30.3156 11.0062 27.3743 11.0062C24.433 11.0062 22.0587 8.63188 22.0587 5.6906C22.0587 2.74932 24.433 0.375031 27.3743 0.375031C30.3156 0.375031 32.6721 2.74932 32.6721 5.6906ZM13.1994 14.5499C9.07099 14.5499 0.796417 16.623 0.796417 20.7514V25.181H25.6024V20.7514C25.6024 16.623 17.3278 14.5499 13.1994 14.5499ZM25.6556 14.6385C26.2758 14.5853 26.8605 14.5499 27.3743 14.5499C31.5028 14.5499 39.7773 16.623 39.7773 20.7514V25.181H29.1462V20.7514C29.1462 18.129 27.711 16.1268 25.6556 14.6385Z" fill="#264653"/>
</svg>
