<svg width="33" height="33" viewBox="0 0 33 33" fill="none" xmlns="http://www.w3.org/2000/svg">
<path d="M13.8728 3.34033L2.55121 13.5238H4.82624L14.8386 4.46859C14.4093 4.19625 14.0659 3.80719 13.8728 3.34033Z" fill="#25596D"/>
<path d="M30.0788 13.5244L18.7895 3.35071C18.5963 3.80784 18.2637 4.19689 17.8237 4.47895L27.836 13.5342H30.0788V13.5244Z" fill="#25596D"/>
<path d="M16.3384 0.83136C15.3189 0.83136 14.4819 1.5803 14.4819 2.51402C14.4819 2.60156 14.4926 2.68909 14.5034 2.7669C14.5892 3.27267 14.9326 3.71035 15.394 3.96323C15.6731 4.10913 15.9843 4.19667 16.3277 4.19667C16.6711 4.19667 16.9823 4.10913 17.2613 3.96323C17.7335 3.71035 18.0661 3.28239 18.152 2.77662C18.1627 2.68908 18.1734 2.60156 18.1734 2.51402C18.1949 1.59002 17.3579 0.83136 16.3384 0.83136Z" fill="#25596D"/>
<path d="M8.12924 23.0181C8.22582 22.8917 8.26875 22.7361 8.26875 22.5513C8.26875 22.3373 8.20438 22.172 8.08634 22.0455C7.96829 21.9191 7.78584 21.8315 7.56048 21.8024C7.45317 21.7926 7.1098 21.7829 6.55177 21.7829H5.4679V23.3586H6.48735C7.15269 23.3586 7.57122 23.3294 7.73219 23.2807C7.91462 23.2321 8.04339 23.1446 8.12924 23.0181Z" fill="#25596D"/>
<path d="M28.7306 14.527H3.94134C1.97751 14.527 0.389282 15.9665 0.389282 17.7464V29.5055C0.389282 31.2854 1.97751 32.7249 3.94134 32.7249H28.7306C30.6945 32.7249 32.2827 31.2854 32.2827 29.5055V17.7464C32.2827 15.9665 30.6945 14.527 28.7306 14.527ZM8.60944 26.9378L7.61143 25.5858C7.2573 25.0995 7.01049 24.798 6.88171 24.6715C6.75294 24.5451 6.61341 24.4575 6.46318 24.4089C6.31294 24.3603 6.08759 24.3408 5.76565 24.3408H5.48666V26.928H4.10231V20.7226H7.01048C7.74021 20.7226 8.27677 20.781 8.60944 20.888C8.94211 20.995 9.21041 21.1992 9.40358 21.4813C9.59674 21.7634 9.70405 22.094 9.70405 22.4636C9.70405 22.9305 9.5538 23.3098 9.25332 23.6211C8.95285 23.9226 8.50215 24.1171 7.9012 24.1949C8.20168 24.3505 8.44847 24.5256 8.64163 24.7202C8.83479 24.905 9.10309 25.2454 9.42503 25.7317L10.2621 26.9378H8.60944ZM16.218 26.9378H11.0133V20.7324H16.0892V21.7828H12.3976V23.1639H15.8316V24.2144H12.3976V25.9068H16.218V26.9378ZM22.8392 26.9378H21.4548L18.6969 22.8916V26.9378H17.4091V20.7324H18.7505L21.5514 24.8758V20.7324H22.8392V26.9378ZM29.2565 21.7828H27.2283V26.9378H25.8439V21.7828H23.8157V20.7324H29.2565V21.7828Z" fill="#25596D"/>
</svg>
