<svg width="100" height="100" viewBox="0 0 17 17" fill="none" xmlns="http://www.w3.org/2000/svg">
<path fill-rule="evenodd" clip-rule="evenodd" d="M11.2222 2.37362C11.2222 3.10695 10.6222 3.70695 9.88885 3.70695C9.15552 3.70695 8.55552 3.10695 8.55552 2.37362C8.55552 1.64028 9.15552 1.04028 9.88885 1.04028C10.6222 1.04028 11.2222 1.64028 11.2222 2.37362ZM5.55552 15.3736L7.42219 5.97362L6.22219 6.44028V8.70695H4.88885V5.57362L8.25552 4.14695C8.90219 3.87362 9.64886 4.11362 10.0222 4.70695L10.6889 5.77362C11.2222 6.70695 12.2889 7.37362 13.5555 7.37362V8.70695C12.0889 8.70695 10.7555 8.04028 9.88885 7.04028L9.48886 9.04028L10.8889 10.3736V15.3736H9.55552V11.3736L8.15552 10.0403L6.95552 15.3736H5.55552Z" fill="#2A9D8F"/>
</svg>
