<svg width="100" height="100" viewBox="0 0 17 17" fill="none" xmlns="http://www.w3.org/2000/svg">
<path fill-rule="evenodd" clip-rule="evenodd" d="M10.6666 2.37349C10.6666 3.10683 10.0666 3.70683 9.33331 3.70683C8.59998 3.70683 7.99998 3.10683 7.99998 2.37349C7.99998 1.64016 8.59998 1.04016 9.33331 1.04016C10.0666 1.04016 10.6666 1.64016 10.6666 2.37349ZM4.99998 15.3735L6.86665 5.97349L5.66665 6.44016V8.70683H4.33331V5.57349L7.69998 4.14683C8.34665 3.87349 9.09331 4.11349 9.46665 4.70683L10.1333 5.77349C10.6666 6.70683 11.7333 7.37349 13 7.37349V8.70683C11.5333 8.70683 10.2 8.04016 9.33331 7.04016L8.93331 9.04016L10.3333 10.3735V15.3735H8.99998V11.3735L7.59998 10.0402L6.39998 15.3735H4.99998Z" fill="white"/>
</svg>
